<svg xmlns="http://www.w3.org/2000/svg" xmlns:svg="http://www.w3.org/2000/svg" xmlns:xlink="http://www.w3.org/1999/xlink" version="1.0" height="561.2702897787094pt" width="716.5159899670795pt" viewBox="199.48401003292054 617 724.5159899670795 567.2702897787094" ><defs><style type="text/css">
            @font-face {
                font-family: 'noto_regular';
                src: url('https://app.creately.com/diagram/assets/fonts/noto/noto-regular.woff') format('woff'),
                     url('https://app.creately.com/diagram/assets/fonts/noto/noto-regular.woff2') format('woff2');
                font-weight: normal;
                font-style: normal;
            }
        p {
            margin: 0;
        }
        </style></defs><defs><style>
            span{ display: inline-block; }
        </style></defs><g id="azpvjdxjyv"><g transform="translate(400 620)"><rect x="0" y="0" width="410.999990940094" height="561.2702897787094" fill="rgba(251,173,130,0.5568627450980392)" stroke="#f68e54" stroke-width="1.5" stroke-linecap="round" stroke-linejoin="round"/></g><g transform="translate(511.999995470047, 625) rotate(0, 93.5, 0)" width="187" height="19"><text text-decoration="none" x="10" fill="rgb(0, 0, 0)" font-size="10pt" font-family="Arial"  y="15">Simple&#160;</text><text text-decoration="none" x="52" fill="rgb(0, 0, 0)" font-size="10pt" font-family="Arial"  y="15">ATM&#160;</text><text text-decoration="none" x="82" fill="rgb(0, 0, 0)" font-size="10pt" font-family="Arial"  y="15">Machine&#160;</text><text text-decoration="none" x="134" fill="rgb(0, 0, 0)" font-size="10pt" font-family="Arial"  y="15">System</text><text text-decoration="none" x="177" fill="#4b4b4b" font-size="10pt" font-family="noto_regular"  y="15"></text></g></g><g id="bkfi3kvr4i"><g transform="translate(625 650)"><ellipse cx="65.4999988079071" cy="30.5" rx="65.4999988079071" ry="30.5" fill="rgba(26,188,156,1)" stroke="#5e5ca7" stroke-width="1.5" stroke-linecap="round" stroke-linejoin="round"/></g><g transform="translate(636.9999988079071, 671) rotate(0, 53.5, 9.5)" width="107" height="19"><text text-decoration="none" x="6" fill="rgb(0, 0, 0)" font-size="9pt" font-family="Arial"  y="15">System&#160;</text><text text-decoration="none" x="49" fill="rgb(0, 0, 0)" font-size="9pt" font-family="Arial"  y="15">Reporting</text><text text-decoration="none" x="101" fill="#4b4b4b" font-size="10pt" font-family="noto_regular"  y="15"></text></g></g><g id="69b3hb12ic"><g transform="translate(465 819.5)"><ellipse cx="65.4999988079071" cy="30.5" rx="65.4999988079071" ry="30.5" fill="rgba(26,188,156,1)" stroke="#5e5ca7" stroke-width="1.5" stroke-linecap="round" stroke-linejoin="round"/></g><g transform="translate(513.9999988079071, 840.5) rotate(0, 16.5, 9.5)" width="33" height="19"><text text-decoration="none" x="1.5" fill="rgb(0, 0, 0)" font-size="9pt" font-family="Arial"  y="15">Login</text><text text-decoration="none" x="31.5" fill="#4b4b4b" font-size="10pt" font-family="noto_regular"  y="15"></text></g></g><g id="1vsw1pxthr"><g transform="translate(505 930)"><ellipse cx="45.5" cy="30.5" rx="45.5" ry="30.5" fill="rgba(26,188,156,1)" stroke="#5e5ca7" stroke-width="1.5" stroke-linecap="round" stroke-linejoin="round"/></g><g transform="translate(516.5, 951) rotate(0, 34, 9.5)" width="68" height="19"><text text-decoration="none" x="1.5" fill="rgb(0, 0, 0)" font-size="9pt" font-family="Arial"  y="15">Transaction</text><text text-decoration="none" x="66.5" fill="#4b4b4b" font-size="10pt" font-family="noto_regular"  y="15"></text></g></g><g id="21uryhxlx2"><mask id="860a7" x="517" y="866.5" width="31" height="76.5" maskUnits="userSpaceOnUse"><rect x="517" y="866.5" width="31" height="76.5" fill="white" /><rect x="484" y="892.25" width="97" height="25" fill="black" /></mask><g mask="url(#860a7)"><path d="M 530,879.5 L 535,930" fill="none" stroke="#000000" stroke-width="1.5" stroke-linecap="round" stroke-linejoin="round" stroke-dasharray="5 5"/></g><g transform="translate(487, 895.25)" width="91" height="19"><text text-decoration="none" x="11" fill="rgb(75, 75, 75)" font-size="10pt" font-family="Lato"  y="15">&#x3C;&#x3C;include&#x3E;&#x3E;</text><text text-decoration="none" x="80" fill="#4b4b4b" font-size="10pt" font-family="noto_regular"  y="15"></text></g></g><g id="48reelv66k"><g transform="translate(685 800)"><ellipse cx="45.5" cy="30.5" rx="45.5" ry="30.5" fill="rgba(26,188,156,1)" stroke="#5e5ca7" stroke-width="1.5" stroke-linecap="round" stroke-linejoin="round"/></g><g transform="translate(707, 821) rotate(0, 23.5, 9.5)" width="47" height="19"><text text-decoration="none" x="1.5" fill="rgb(0, 0, 0)" font-size="9pt" font-family="Arial"  y="15">Bad&#160;</text><text text-decoration="none" x="25.5" fill="rgb(0, 0, 0)" font-size="9pt" font-family="Arial"  y="15">PIN</text><text text-decoration="none" x="45.5" fill="#4b4b4b" font-size="10pt" font-family="noto_regular"  y="15"></text></g></g><g id="2awsq9rjye"><g transform="translate(415 1080)"><ellipse cx="45.5" cy="30.5" rx="45.5" ry="30.5" fill="rgba(26,188,156,1)" stroke="#5e5ca7" stroke-width="1.5" stroke-linecap="round" stroke-linejoin="round"/></g><g transform="translate(431.5, 1101) rotate(0, 29, 9.5)" width="58" height="19"><text text-decoration="none" x="3" fill="rgb(0, 0, 0)" font-size="9pt" font-family="Arial"  y="15">Withdraw</text><text text-decoration="none" x="55" fill="#4b4b4b" font-size="10pt" font-family="noto_regular"  y="15"></text></g></g><g id="6uwqd29rib"><g><path d="M 485,1085 L 520,980" fill="none" stroke="#000000"/><path d="M 520,980 L 511.63639313018103,984.544948806103 M 520,980 L 523.9639162121933,988.6541231667737 Z" fill="rgb(255,255,255)" stroke="#000000"/></g></g><g id="1xkop27a33"><mask id="65dbf" x="572" y="837" width="136" height="111" maskUnits="userSpaceOnUse"><rect x="572" y="837" width="136" height="111" fill="white" /><rect x="592.5" y="880" width="95" height="25" fill="black" /></mask><g mask="url(#65dbf)"><path d="M 695,850 L 585,935" fill="none" stroke="#000000" stroke-width="1.5" stroke-linecap="round" stroke-linejoin="round" stroke-dasharray="5 5"/></g><g transform="translate(595.5, 883)" width="89" height="19"><text text-decoration="none" x="11.5" fill="rgb(75, 75, 75)" font-size="10pt" font-family="Lato"  y="15">&#x3C;&#x3C;extend&#x3E;&#x3E;</text><text text-decoration="none" x="77.5" fill="#4b4b4b" font-size="10pt" font-family="noto_regular"  y="15"></text></g></g><g id="99pxg1vewd"><g transform="translate(510 1095)"><ellipse cx="45.5" cy="30.5" rx="45.5" ry="30.5" fill="rgba(26,188,156,1)" stroke="#5e5ca7" stroke-width="1.5" stroke-linecap="round" stroke-linejoin="round"/></g><g transform="translate(511.5, 1116) rotate(0, 44, 9.5)" width="88" height="19"><text text-decoration="none" x="4.5" fill="rgb(0, 0, 0)" font-size="9pt" font-family="Arial"  y="15">Check&#160;</text><text text-decoration="none" x="40.5" fill="rgb(0, 0, 0)" font-size="9pt" font-family="Arial"  y="15">Balance</text><text text-decoration="none" x="83.5" fill="#4b4b4b" font-size="10pt" font-family="noto_regular"  y="15"></text></g></g><g id="19xei7hbny"><g><path d="M 555,1095 L 550,990" fill="none" stroke="#000000"/><path d="M 550,990 L 543.8410667621307,997.2576870209764 M 550,990 L 556.8207092297364,996.6396088082332 Z" fill="rgb(255,255,255)" stroke="#000000"/></g></g><g id="2lxe4ev23p"><g transform="translate(605 1070)"><ellipse cx="45.5" cy="30.5" rx="45.5" ry="30.5" fill="rgba(26,188,156,1)" stroke="#5e5ca7" stroke-width="1.5" stroke-linecap="round" stroke-linejoin="round"/></g><g transform="translate(628, 1091) rotate(0, 22.5, 9.5)" width="45" height="19"><text text-decoration="none" x="2" fill="rgb(0, 0, 0)" font-size="9pt" font-family="Arial"  y="15">Deposit</text><text text-decoration="none" x="43" fill="#4b4b4b" font-size="10pt" font-family="noto_regular"  y="15"></text></g></g><g id="6vqbm3fx04"><g transform="translate(710 1015)"><ellipse cx="45.5" cy="30.5" rx="45.5" ry="30.5" fill="rgba(26,188,156,1)" stroke="#5e5ca7" stroke-width="1.5" stroke-linecap="round" stroke-linejoin="round"/></g><g transform="translate(717.5, 1036) rotate(0, 38, 9.5)" width="76" height="19"><text text-decoration="none" x="4" fill="rgb(0, 0, 0)" font-size="9pt" font-family="Arial"  y="15">Print&#160;</text><text text-decoration="none" x="33" fill="rgb(0, 0, 0)" font-size="9pt" font-family="Arial"  y="15">Receipt</text><text text-decoration="none" x="72" fill="#4b4b4b" font-size="10pt" font-family="noto_regular"  y="15"></text></g></g><g id="z0i69trrxa"><g><path d="M 715,1030 L 590,970" fill="none" stroke="#000000"/><path d="M 590,970 L 593.4599352124501,978.8676562770908 M 590,970 L 599.0829942827606,967.1529498806104 Z" fill="rgb(255,255,255)" stroke="#000000"/></g></g><g id="gbxhfn9ezq"><g><path d="M 615,1080 L 575,985" fill="none" stroke="#000000" stroke-width="1.5" stroke-linecap="round" stroke-linejoin="round"/><path d="M 575,985 L 571.711500508289,993.9326508168626 M 575,985 L 583.6875534055633,988.8901022285365 Z" fill="rgb(255,255,255)" stroke="#000000" stroke-width="1.5" stroke-linecap="round" stroke-linejoin="round"/></g></g><g id="55r6z5jfrw"><g transform="translate(870 915)"><path d="M 18.012,6.306 C 18.01199989096548,10.7785400853223 23.91366648948557,13.573877735902542 28.634999877336163,11.33760777070806 C 30.826178415888567,10.29975122646299 32.1760000506031,8.381713160394952 32.176,6.306 C 32.176000109034526,1.8334599146777002 26.27433351051443,-0.9618777359025432 21.55300012266384,1.2743922292919398 C 19.361821584111432,2.31224877353701 18.011999949396902,4.230286839605047 18.012,6.306" fill="rgb(248, 217, 212)" stroke="rgb(246, 142, 84)" stroke-width="1.5" vector-effect="non-scaling-stroke"/><path d="M 8.744,17.991 C 8.744,17.991 26.087,6.301 42.598,18.368 C 42.598,18.368 43.848,20.883 44.123,22.264999999999997 L 50.507999999999996,44.260999999999996 C 50.507999999999996,44.260999999999996 48.077999999999996,51.489999999999995 42.87499999999999,45.519999999999996 L 37.428,26.79 C 37.428,26.79 36.943999999999996,26.233999999999998 36.5,26.31 C 35.609,26.462999999999997 34.271,27.081 34.271,29.43 L 34.271,86.369 L 34.271,88.256 C 34.271,88.256 31.324,92.969 28.306,88.507 L 28.306,61.985 L 23.034,61.985 L 23.034,87.863 C 23.034,87.863 21.901999999999997,90.602 19.622999999999998,90.497 C 17.346999999999998,90.393 16.235,88.256 16.235,88.256 L 16.235,28.801 C 16.235,28.801 15.959,24.778999999999996 13.462,26.79 C 13.462,26.79 8.049,47.027 6.2459999999999996,47.405 C 1.2499999999999991,51.113 0.5069999999999997,45.278 0.5069999999999997,45.278 C 0.5069999999999997,45.278 7.357,18.368 8.744,17.991 Z" fill="rgb(248, 217, 212)" stroke="rgb(246, 142, 84)" stroke-width="1.5" vector-effect="non-scaling-stroke"/></g><g transform="translate(877.2954224800126, 1016) rotate(0, 0, 0)" width="34" height="19"><text text-decoration="none" x="0" fill="#000000" font-size="9pt" font-family="Arial"  y="15">Bank&#160;</text><text text-decoration="none" x="30" fill="#4b4b4b" font-size="10pt" font-family="noto_regular"  y="15"></text></g></g><g id="36i1ltxhca"><g transform="translate(305 804)"><path d="M 18.012,6.306 C 18.01199989096548,10.7785400853223 23.91366648948557,13.573877735902542 28.634999877336163,11.33760777070806 C 30.826178415888567,10.29975122646299 32.1760000506031,8.381713160394952 32.176,6.306 C 32.176000109034526,1.8334599146777002 26.27433351051443,-0.9618777359025432 21.55300012266384,1.2743922292919398 C 19.361821584111432,2.31224877353701 18.011999949396902,4.230286839605047 18.012,6.306" fill="rgb(184, 234, 246)" stroke="rgb(0, 174, 239)" stroke-width="1.5" vector-effect="non-scaling-stroke"/><path d="M 8.744,17.991 C 8.744,17.991 26.087,6.301 42.598,18.368 C 42.598,18.368 43.848,20.883 44.123,22.264999999999997 L 50.507999999999996,44.260999999999996 C 50.507999999999996,44.260999999999996 48.077999999999996,51.489999999999995 42.87499999999999,45.519999999999996 L 37.428,26.79 C 37.428,26.79 36.943999999999996,26.233999999999998 36.5,26.31 C 35.609,26.462999999999997 34.271,27.081 34.271,29.43 L 34.271,86.369 L 34.271,88.256 C 34.271,88.256 31.324,92.969 28.306,88.507 L 28.306,61.985 L 23.034,61.985 L 23.034,87.863 C 23.034,87.863 21.901999999999997,90.602 19.622999999999998,90.497 C 17.346999999999998,90.393 16.235,88.256 16.235,88.256 L 16.235,28.801 C 16.235,28.801 15.959,24.778999999999996 13.462,26.79 C 13.462,26.79 8.049,47.027 6.2459999999999996,47.405 C 1.2499999999999991,51.113 0.5069999999999997,45.278 0.5069999999999997,45.278 C 0.5069999999999997,45.278 7.357,18.368 8.744,17.991 Z" fill="rgb(184, 234, 246)" stroke="rgb(0, 174, 239)" stroke-width="1.5" vector-effect="non-scaling-stroke"/></g><g transform="translate(288.66025239065686, 905) rotate(0, 0, 0)" width="96" height="19"><text text-decoration="none" x="0" fill="#000000" font-size="9pt" font-family="Arial"  y="15">Bank&#160;</text><text text-decoration="none" x="30" fill="#000000" font-size="9pt" font-family="Arial"  y="15">Customer&#160;</text><text text-decoration="none" x="86" fill="#4b4b4b" font-size="10pt" font-family="noto_regular"  y="15"></text></g></g><g id="5niesbr2va"><g transform="translate(220 675)"><path d="M 18.012,6.306 C 18.01199989096548,10.7785400853223 23.91366648948557,13.573877735902542 28.634999877336163,11.33760777070806 C 30.826178415888567,10.29975122646299 32.1760000506031,8.381713160394952 32.176,6.306 C 32.176000109034526,1.8334599146777002 26.27433351051443,-0.9618777359025432 21.55300012266384,1.2743922292919398 C 19.361821584111432,2.31224877353701 18.011999949396902,4.230286839605047 18.012,6.306" fill="rgb(248, 217, 212)" stroke="rgb(246, 142, 84)" stroke-width="1.5" vector-effect="non-scaling-stroke"/><path d="M 8.744,17.991 C 8.744,17.991 26.087,6.301 42.598,18.368 C 42.598,18.368 43.848,20.883 44.123,22.264999999999997 L 50.507999999999996,44.260999999999996 C 50.507999999999996,44.260999999999996 48.077999999999996,51.489999999999995 42.87499999999999,45.519999999999996 L 37.428,26.79 C 37.428,26.79 36.943999999999996,26.233999999999998 36.5,26.31 C 35.609,26.462999999999997 34.271,27.081 34.271,29.43 L 34.271,86.369 L 34.271,88.256 C 34.271,88.256 31.324,92.969 28.306,88.507 L 28.306,61.985 L 23.034,61.985 L 23.034,87.863 C 23.034,87.863 21.901999999999997,90.602 19.622999999999998,90.497 C 17.346999999999998,90.393 16.235,88.256 16.235,88.256 L 16.235,28.801 C 16.235,28.801 15.959,24.778999999999996 13.462,26.79 C 13.462,26.79 8.049,47.027 6.2459999999999996,47.405 C 1.2499999999999991,51.113 0.5069999999999997,45.278 0.5069999999999997,45.278 C 0.5069999999999997,45.278 7.357,18.368 8.744,17.991 Z" fill="rgb(248, 217, 212)" stroke="rgb(246, 142, 84)" stroke-width="1.5" vector-effect="non-scaling-stroke"/></g><g transform="translate(204.48401003292054, 776) rotate(0, 41, 0)" width="82" height="34"><text text-decoration="none" x="3.5" fill="#000000" font-size="9pt" font-family="Arial"  y="11">Administrator</text><text text-decoration="none" x="78.5" fill="#000000" font-size="9pt" font-family="Arial"  y="11"></text><text text-decoration="none" x="6" fill="#000000" font-size="9pt" font-family="Arial"  y="30">(Third-party)&#160;</text><text text-decoration="none" x="76" fill="#4b4b4b" font-size="10pt" font-family="noto_regular"  y="30"></text></g></g><g id="bglvtsdo16"><g transform="translate(600 725)"><ellipse cx="65.4999988079071" cy="30.5" rx="65.4999988079071" ry="30.5" fill="rgba(26,188,156,1)" stroke="#5e5ca7" stroke-width="1.5" stroke-linecap="round" stroke-linejoin="round"/></g><g transform="translate(609.9999988079071, 746) rotate(0, 55.5, 9.5)" width="111" height="19"><text text-decoration="none" x="6.5" fill="rgb(0, 0, 0)" font-size="9pt" font-family="Arial"  y="15">System&#160;</text><text text-decoration="none" x="49.5" fill="rgb(0, 0, 0)" font-size="9pt" font-family="Arial"  y="15">Shutdown</text><text text-decoration="none" x="104.5" fill="#4b4b4b" font-size="10pt" font-family="noto_regular"  y="15"></text></g></g><g id="1xi1l40oja"><g transform="translate(415 690)"><ellipse cx="65.4999988079071" cy="30.5" rx="65.4999988079071" ry="30.5" fill="rgba(26,188,156,1)" stroke="#5e5ca7" stroke-width="1.5" stroke-linecap="round" stroke-linejoin="round"/></g><g transform="translate(415.9999988079071, 711) rotate(0, 64.5, 9.5)" width="129" height="19"><text text-decoration="none" x="6.5" fill="rgb(0, 0, 0)" font-size="9pt" font-family="Arial"  y="15">System&#160;</text><text text-decoration="none" x="49.5" fill="rgb(0, 0, 0)" font-size="9pt" font-family="Arial"  y="15">Maintainence</text><text text-decoration="none" x="122.5" fill="#4b4b4b" font-size="10pt" font-family="noto_regular"  y="15"></text></g></g><g id="1j9kz06w0p"><mask id="01d02" x="527" y="667" width="111" height="56" maskUnits="userSpaceOnUse"><rect x="527" y="667" width="111" height="56" fill="white" /><rect x="534" y="682.5" width="97" height="25" fill="black" /></mask><g mask="url(#01d02)"><path d="M 625,680 L 540,710" fill="none" stroke="#000000" stroke-width="1.5" stroke-linecap="round" stroke-linejoin="round" stroke-dasharray="5 5"/></g><g transform="translate(537, 685.5)" width="91" height="19"><text text-decoration="none" x="11" fill="rgb(75, 75, 75)" font-size="10pt" font-family="Lato"  y="15">&#x3C;&#x3C;include&#x3E;&#x3E;</text><text text-decoration="none" x="80" fill="#4b4b4b" font-size="10pt" font-family="noto_regular"  y="15"></text></g></g><g id="2e09l0iegs"><mask id="0542b" x="527" y="722" width="86" height="46" maskUnits="userSpaceOnUse"><rect x="527" y="722" width="86" height="46" fill="white" /><rect x="521.5" y="732.5" width="97" height="25" fill="black" /></mask><g mask="url(#0542b)"><path d="M 600,755 L 540,735" fill="none" stroke="#000000" stroke-width="1.5" stroke-linecap="round" stroke-linejoin="round" stroke-dasharray="5 5"/></g><g transform="translate(524.5, 735.5)" width="91" height="19"><text text-decoration="none" x="11" fill="rgb(75, 75, 75)" font-size="10pt" font-family="Lato"  y="15">&#x3C;&#x3C;include&#x3E;&#x3E;</text><text text-decoration="none" x="80" fill="#4b4b4b" font-size="10pt" font-family="noto_regular"  y="15"></text></g></g><g id="rp7pty6zxw"><g><path d="M 870,960 L 595,960" fill="none" stroke="#000000" stroke-width="1.5" stroke-linecap="round" stroke-linejoin="round"/></g></g><g id="1t31bl4bp1"><g><path d="M 355,849 L 465,849.5" fill="none" stroke="#000000" stroke-width="1.5" stroke-linecap="round" stroke-linejoin="round"/></g></g><g id="2a3bwuasvt"><g><path d="M 270,720 L 415,720" fill="none" stroke="#000000" stroke-width="1.5" stroke-linecap="round" stroke-linejoin="round"/></g></g></svg>